<?xml version="1.0" encoding="utf-8"?>
<!-- Generator: Adobe Illustrator 23.0.4, SVG Export Plug-In . SVG Version: 6.00 Build 0)  -->
<svg version="1.1" id="Layer_1" xmlns="http://www.w3.org/2000/svg" xmlns:xlink="http://www.w3.org/1999/xlink" x="0px" y="0px"
	 viewBox="0 0 953.31 400.15" style="enable-background:new 0 0 953.31 400.15;" xml:space="preserve">
<style type="text/css">
	.st0{fill-rule:evenodd;clip-rule:evenodd;fill:none;}
	.st1{fill:#EEEEE8;}
	.st2{fill:#894000;}
	.st3{fill:none;stroke:#2C3CFF;stroke-width:6;stroke-miterlimit:10;}
	.st4{fill:#2C3CFF;stroke:#2C3CFF;stroke-width:4;stroke-miterlimit:10;}
	.st5{fill:#2C3CFF;}
	.st6{fill:none;stroke:#FFFFFF;stroke-width:8;stroke-miterlimit:10;}
	.st7{fill:#FFFFFF;stroke:#FFFFFF;stroke-width:2;stroke-miterlimit:10;}
	.st8{fill:#EEEEE8;stroke:#000000;stroke-width:2;}
	.st9{stroke:#EEEEE8;stroke-width:2;}
	.st10{fill:#FFEF31;stroke:#000000;stroke-width:2;}
	.st11{fill:#EEEEE8;stroke:#000000;stroke-width:1.5;}
	.st12{fill:#E36025;}
	.st13{fill:#FFBD57;}
	.st14{fill:#EFCAC6;}
	.st15{fill:#6F9CC9;}
	.st16{fill:#1E434A;}
	.st17{clip-path:url(#SVGID_4_);fill:#EEEEE8;}
	.st18{clip-path:url(#SVGID_4_);}
	.st19{clip-path:url(#SVGID_6_);fill:#894000;}
	.st20{clip-path:url(#SVGID_6_);}
	.st21{fill:#E62C3E;}
	.st22{fill:#FF8AE4;}
	.st23{clip-path:url(#SVGID_8_);fill:#EEEEE8;}
	.st24{clip-path:url(#SVGID_8_);}
	.st25{clip-path:url(#SVGID_10_);fill:#894000;}
	.st26{fill:#221F20;}
	.st27{fill:none;stroke:#221F20;stroke-width:3;stroke-miterlimit:10;}
	.st28{fill:#FF805A;}
	.st29{fill:none;stroke:#221F20;stroke-miterlimit:10;}
	.st30{fill:none;stroke:#EEEEE8;stroke-width:0.5;stroke-miterlimit:10;}
	.st31{fill:none;stroke:#000000;}
	.st32{fill:#EA6343;}
	.st33{clip-path:url(#SVGID_12_);fill:#FF805A;}
	.st34{clip-path:url(#SVGID_14_);fill:#FF805A;}
	.st35{fill:none;stroke:#192A00;stroke-width:4;stroke-miterlimit:10;}
	.st36{fill:#192A00;}
	.st37{fill:#2B3E22;}
	.st38{clip-path:url(#SVGID_16_);fill:#192A00;}
	.st39{fill:none;stroke:#F47600;stroke-width:4;stroke-miterlimit:10;}
	.st40{fill:#F47600;}
	.st41{clip-path:url(#SVGID_18_);}
	.st42{clip-path:url(#SVGID_20_);fill:#EA7A56;}
	.st43{fill:#EEEEE8;stroke:#192A00;stroke-miterlimit:10;}
	.st44{fill:#192A00;stroke:#192A00;stroke-miterlimit:10;}
	.st45{clip-path:url(#SVGID_22_);}
	.st46{fill:#EEEEE8;stroke:#192A00;stroke-width:0.75;stroke-miterlimit:10;}
	.st47{opacity:0.09;fill:#EEEEE8;stroke:#192A00;stroke-miterlimit:10;}
	.st48{opacity:0.08;clip-path:url(#SVGID_26_);}
	.st49{opacity:0.46;fill:#2B3E22;}
	.st50{fill:#192A00;stroke:#EEEEE8;stroke-miterlimit:10;}
	.st51{fill:none;stroke:#192A00;stroke-miterlimit:10;}
	.st52{fill:none;stroke:#EEEEE8;stroke-miterlimit:10;}
	.st53{clip-path:url(#SVGID_28_);fill:#192A00;}
	.st54{fill:none;stroke:#EEEEE8;stroke-width:3;stroke-miterlimit:10;}
	.st55{clip-path:url(#SVGID_30_);fill:none;stroke:#192A00;stroke-width:3;stroke-miterlimit:10;}
	.st56{fill:none;stroke:#F47600;stroke-width:2;stroke-miterlimit:10;}
	.st57{fill:#C05D08;}
	.st58{fill:#FF4E45;}
	.st59{fill:#FF4E45;stroke:#EEEEE8;stroke-width:2;stroke-miterlimit:10;}
	.st60{fill:#EEEEE8;stroke:#FF4E45;stroke-miterlimit:10;}
	
		.st61{fill-rule:evenodd;clip-rule:evenodd;fill:none;stroke:#FFFFFF;stroke-width:4;stroke-linecap:round;stroke-linejoin:round;stroke-miterlimit:10;}
	
		.st62{fill-rule:evenodd;clip-rule:evenodd;stroke:#FFFFFF;stroke-width:4;stroke-linecap:round;stroke-linejoin:round;stroke-miterlimit:10;}
	.st63{stroke:#FFFFFF;stroke-width:4;stroke-linecap:round;stroke-linejoin:round;stroke-miterlimit:10;}
	
		.st64{fill-rule:evenodd;clip-rule:evenodd;fill:#FF4E45;stroke:#EEEEE8;stroke-width:4;stroke-linecap:round;stroke-linejoin:round;stroke-miterlimit:10;}
	.st65{fill-rule:evenodd;clip-rule:evenodd;fill:#FF4E45;stroke:#EEEEE8;stroke-width:2;stroke-miterlimit:10;}
	
		.st66{fill-rule:evenodd;clip-rule:evenodd;fill:#FF4E45;stroke:#EEEEE8;stroke-width:2;stroke-linecap:round;stroke-linejoin:round;stroke-miterlimit:10;}
	.st67{fill:#FF4E45;stroke:#EEEEE8;stroke-width:2;stroke-linecap:round;stroke-linejoin:round;stroke-miterlimit:10;}
	.st68{fill:none;stroke:#FF4E45;stroke-miterlimit:10;}
	.st69{fill-rule:evenodd;clip-rule:evenodd;fill:#EEEEE8;}
	.st70{fill:#FF4E45;stroke:#EEEEE8;stroke-miterlimit:10;}
	.st71{fill-rule:evenodd;clip-rule:evenodd;fill:#FF4E45;stroke:#EEEEE8;stroke-miterlimit:10;}
	.st72{fill:#FFFFFF;}
	.st73{fill:#8ED3D5;}
	.st74{fill:#A9C2AF;}
	.st75{fill:#272323;}
	.st76{fill:#FFFFFF;stroke:#4000FF;stroke-miterlimit:10;}
	.st77{fill:#6F9CC9;stroke:#EEEEE8;stroke-miterlimit:10;}
	.st78{fill:#272323;stroke:#EEEEE8;stroke-miterlimit:10;}
	.st79{clip-path:url(#SVGID_34_);}
	.st80{fill:none;stroke:#272323;stroke-miterlimit:10;}
	.st81{fill:none;}
	.st82{clip-path:url(#SVGID_38_);}
	.st83{clip-path:url(#SVGID_40_);}
	.st84{opacity:0.74;clip-path:url(#SVGID_40_);}
	.st85{fill:#5B4616;}
	.st86{clip-path:url(#SVGID_42_);}
	.st87{opacity:0.74;clip-path:url(#SVGID_42_);}
	.st88{clip-path:url(#SVGID_44_);}
	.st89{clip-path:url(#SVGID_46_);}
	.st90{opacity:0.74;clip-path:url(#SVGID_46_);}
	.st91{clip-path:url(#SVGID_48_);}
	.st92{opacity:0.74;clip-path:url(#SVGID_48_);}
	.st93{fill:#FFFFFF;stroke:#4000FF;stroke-width:0.14;stroke-miterlimit:10;}
	.st94{fill:#FFFFFF;stroke:#4000FF;stroke-width:0.1142;stroke-miterlimit:10;}
	.st95{fill:#FFFFFF;stroke:#4000FF;stroke-width:0.1169;stroke-miterlimit:10;}
	.st96{clip-path:url(#SVGID_50_);}
	.st97{clip-path:url(#SVGID_52_);}
	.st98{clip-path:url(#SVGID_54_);}
	.st99{clip-path:url(#SVGID_56_);}
	.st100{clip-path:url(#SVGID_58_);}
	.st101{clip-path:url(#SVGID_60_);}
	.st102{clip-path:url(#SVGID_62_);}
	.st103{fill:#EEEEE8;stroke:#FF4E45;stroke-width:2;stroke-miterlimit:10;}
	.st104{fill:none;stroke:#FF4E45;stroke-width:2;stroke-miterlimit:10;}
	.st105{clip-path:url(#SVGID_66_);}
	.st106{fill:none;stroke:#FF4E45;stroke-width:0.25;stroke-miterlimit:10;}
	.st107{fill-rule:evenodd;clip-rule:evenodd;fill:#EEEEE8;stroke:#FF4E45;stroke-width:2;stroke-miterlimit:10;}
	.st108{clip-path:url(#SVGID_68_);}
	.st109{clip-path:url(#SVGID_70_);}
</style>
<g>
	<path class="st58" d="M99.12,235.39c-3.46,0-5.05,1.41-5.05,6.28c0.87,40.31,4.03,46.43,13.43,51.23
		c7.49,4.22,13.08,4.57,13.08,7.85c0,1.58-0.65,2.52-3.46,2.52c-4.45,0-35.61-2.75-58.15-2.75c-22.3,0-51.25,2.75-55.34,2.75
		c-2.52,0-3.46-0.94-3.46-2.81c0-3.17,2.88-3.57,9.8-7.39c13.37-6.37,14.84-17.11,14.84-146.49c0-118.15-1.59-126.23-14.66-134.14
		C4.66,9.1,0,8.52,0,5.53c0-2.06,0.94-3,3.46-3c4.09,0,32.34,2.57,54.27,2.57C83.15,5.11,117.85,0,136.46,0
		c88.1,0,142.53,47.5,142.53,114.87c0,75.31-62.01,119.7-134.68,119.7c-11.94,0-21.72-0.87-31.32-2.1v0.94
		c39.11,5.99,75.23,36.29,131.59,36.29c35.57,0,51.5-17.71,55.57-43.33c0.29-1.88,0.94-2.35,1.88-2.35c3.1,0,6.79,11.71,6.79,25.51
		c0,34.83-24.9,63.9-57.83,63.9C192.37,313.43,141.8,235.39,99.12,235.39z M205.58,114.87c0-77.65-29.04-108.3-69.99-108.3
		c-19.71,0-31.88,2.96-36.87,11.13c-5.55,9.18-6.02,20.13-5.43,128.89v71.31c0.15,9.06,3.66,10.46,29.22,10.46
		C171.29,228.36,205.58,193.93,205.58,114.87z"/>
	<path class="st58" d="M530.01,209.27c0,58.18-43.48,98-107.9,98c-64.41,0-107.89-39.83-107.89-98c0-58.28,43.48-98.19,107.89-98.19
		C486.53,111.08,530.01,150.98,530.01,209.27z M469.06,209.27c-0.32-68.24-16.77-91.33-46.95-91.62
		c-30.18,0.29-46.62,23.38-46.94,91.62c0.32,68.12,16.76,91.14,46.94,91.44C452.29,300.41,468.74,277.39,469.06,209.27z"/>
	<path class="st58" d="M560.69,292.09c-4.87,0-6.28,1.87-8.33,9.37c-0.65,3.29-1.88,4.22-3.75,4.22c-1.88,0-3.28-1.41-3.28-4.22
		c-0.29-2.34,0.47-11.72,0.47-21.57c0-20.16-4.87-40.79-4.87-46.42c0-2.81,1.41-3.29,2.81-3.29c2.06,0,3.29,1.24,4.4,4.69
		c14.72,44.55,45.11,65.65,82.62,65.65c25.61,0,42.14-12.27,42.14-33.14c0-16.8-7.86-27.46-38.78-34.7l-32.44-7.64
		c-39.11-9.54-59.38-23.14-59.38-56c0-36.33,35.52-57.97,80.28-57.97c36.5,0,58.88,15.94,66.32,15.94c4.17,0,5.47-3.62,6.61-10.78
		c0.42-3.29,1.56-4.22,3.57-4.22c2.04,0,3.57,1.41,3.57,4.69c0,35.27,7.43,53.51,7.43,56.74c0,1.86-0.89,2.8-2.8,2.8
		c-2.2,0-3.33-1.19-4.77-4.26c-17.36-37.01-45.46-54.34-77.86-54.34c-26.45,0-39.89,12.29-39.89,27.33
		c0,16.85,13.33,25.05,38.7,30.8l36.96,8.3c38.92,8.73,59.07,26.64,59.07,57.8c0,43.81-47.6,65.68-89.35,65.68
		C597.4,307.56,568.1,292.09,560.69,292.09z"/>
	<path class="st58" d="M796.03,365.77c12.91,0,31.66-30.47,31.66-48.65c0-32.1-52.61-130.17-69.1-160.62
		c-9.89-18.62-15.26-25.02-27.94-31.02c-8.29-3.86-11.12-4.54-11.12-7.82c0-2.35,1.88-3.29,4.22-3.29c4.39,0,27.7,3.29,50.43,3.29
		c17.81,0,46.48-2.81,51.64-2.81c1.88,0,3.75,0.47,3.75,3.28c0,2.41-1.83,3.6-7.1,5.27c-6.08,1.88-9.31,5.86-9.31,13.95
		c0,14.76,37.99,98.83,44.89,112.18c0.98,1.7,1.35,2.06,2.05,2.06c0.73,0,1.09-0.41,2.07-2.72c9-23.87,39.38-86.69,39.38-110.82
		c0-8.66-3.83-12.42-21.08-15.44c-5.77-1.18-7.31-2.13-7.31-4.48s1.41-3.28,4.22-3.28c3.51,0,21.45,2.81,34.99,2.81
		c15.76,0,33.24-2.81,36.76-2.81c2.58,0,4.19,0.93,4.19,3.28c0,2.06-1.58,3.67-4.54,4.29c-24.11,3.96-32.72,14.61-44.47,42.91
		l-65.05,155.37c-16.63,40.5-37.65,79.47-70.76,79.47c-17.45,0-32.07-9.11-32.07-26.37c0-15.64,10.7-23.43,21.8-23.43
		C772.17,350.35,781.22,365.77,796.03,365.77z"/>
</g>
</svg>
